<svg width="25" height="25" viewBox="0 0 25 25" fill="none" xmlns="http://www.w3.org/2000/svg">
<g clip-path="url(#clip0_10112_33)">
<g filter="url(#filter0_d_10112_33)">
<path d="M14.0206 21.7999V13.6039H16.7856L17.1966 10.3949H14.0206V8.3509C14.0206 7.4249 14.2786 6.7909 15.6076 6.7909H17.2916V3.9299C16.4722 3.84209 15.6486 3.7997 14.8246 3.8029C12.3806 3.8029 10.7026 5.2949 10.7026 8.0339V10.3889H7.95557V13.5979H10.7086V21.7999H14.0206Z" fill="white"/>
<path d="M14.0206 13.1039H13.5206V13.6039V21.2999H11.2086V13.5979V13.0979H10.7086H8.45557V10.8889H10.7026H11.2026V10.3889V8.0339C11.2026 6.76821 11.5879 5.84947 12.1982 5.24719C12.8103 4.64326 13.704 4.3029 14.8246 4.30291L14.8265 4.3029C15.4825 4.30035 16.1382 4.32735 16.7916 4.38382V6.2909H15.6076C14.8759 6.2909 14.3004 6.46491 13.933 6.90185C13.5819 7.31937 13.5206 7.86619 13.5206 8.3509V10.3949V10.8949H14.0206H16.6284L16.3455 13.1039H14.0206Z" stroke="black"/>
</g>
</g>
<defs>
<filter id="filter0_d_10112_33" x="3.95557" y="3.80273" width="17.3359" height="25.9971" filterUnits="userSpaceOnUse" color-interpolation-filters="sRGB">
<feFlood flood-opacity="0" result="BackgroundImageFix"/>
<feColorMatrix in="SourceAlpha" type="matrix" values="0 0 0 0 0 0 0 0 0 0 0 0 0 0 0 0 0 0 127 0" result="hardAlpha"/>
<feOffset dy="4"/>
<feGaussianBlur stdDeviation="2"/>
<feComposite in2="hardAlpha" operator="out"/>
<feColorMatrix type="matrix" values="0 0 0 0 0 0 0 0 0 0 0 0 0 0 0 0 0 0 0.25 0"/>
<feBlend mode="normal" in2="BackgroundImageFix" result="effect1_dropShadow_10112_33"/>
<feBlend mode="normal" in="SourceGraphic" in2="effect1_dropShadow_10112_33" result="shape"/>
</filter>
<clipPath id="clip0_10112_33">
<rect x="0.623535" y="0.802734" width="24" height="24" fill="white"/>
</clipPath>
</defs>
</svg>
